PathFileType	4	(X/Y/Z)	Run_200 01
DataRate	CameraRate	NumFrames	NumMarkers	Units	OrigDataRate	OrigDataStartFrame	OrigNumFrames
120	120	8	42	mm	120	381	128
Frame#	Time	LASI			RASI			LPSI			RPSI			RTH1			RTH2			RTH3			LTH1			LTH2			LTH3			RTB2			RTB3			LTB1			LTB2			LTB3			RCAL			RTOE			RMT5			LCAL			LTOE			LMT5			LACR			RACR			CLAV			C7			RUA1			RUA2			RUA3			RLEL			RMEL			LUA1			LUA2			LUA3			LLEL			LMEL			RFAsuperior			RFAradius			RFAulna			LFAsuperior			LFAradius			LFAulna			RTB1		
		X1	Y1	Z1	X2	Y2	Z2	X3	Y3	Z3	X4	Y4	Z4	X5	Y5	Z5	X6	Y6	Z6	X7	Y7	Z7	X8	Y8	Z8	X9	Y9	Z9	X10	Y10	Z10	X11	Y11	Z11	X12	Y12	Z12	X13	Y13	Z13	X14	Y14	Z14	X15	Y15	Z15	X16	Y16	Z16	X17	Y17	Z17	X18	Y18	Z18	X19	Y19	Z19	X20	Y20	Z20	X21	Y21	Z21	X22	Y22	Z22	X23	Y23	Z23	X24	Y24	Z24	X25	Y25	Z25	X26	Y26	Z26	X27	Y27	Z27	X28	Y28	Z28	X29	Y29	Z29	X30	Y30	Z30	X31	Y31	Z31	X32	Y32	Z32	X33	Y33	Z33	X34	Y34	Z34	X35	Y35	Z35	X36	Y36	Z36	X37	Y37	Z37	X38	Y38	Z38	X39	Y39	Z39	X40	Y40	Z40	X41	Y41	Z41	X42	Y42	Z42	

381	  3.175000	462.813989	1015.886824	-443.754083	445.227819	1015.087492	-195.450665	287.296168	1032.829407	-380.271650	280.554987	1038.292490	-292.114058	390.671275	833.064201	-163.729045	435.734855	709.427947	-196.250666	335.487909	593.540379	-196.320916	468.771746	876.232777	-485.531442	567.162896	800.543874	-460.943213	559.684546	651.109448	-461.142436	280.507752	327.313794	-209.670998	252.509692	219.593675	-279.826125	564.622513	435.228893	-388.653348	467.663389	383.048785	-448.538564	418.643854	311.421404	-381.348513	 91.814850	124.210566	-279.469315	306.189364	 70.971596	-292.019169	270.228531	 62.253100	-200.950932	250.841355	286.536920	-395.508967	424.674768	155.805741	-376.388800	392.187623	148.929632	-465.033094	411.567213	1462.981532	-505.072155	448.706669	1447.170230	-124.248669	530.820026	1424.711932	-299.397943	395.863885	1516.745811	-312.821169	439.191085	1337.265730	-61.780214	460.745385	1270.211607	-67.264986	373.272802	1252.458600	 -9.507580	414.673528	1176.244417	 22.691357	354.956137	1141.839141	-35.463535	359.460902	1403.451379	-554.400844	281.444381	1362.488441	-529.112485	314.608454	1324.246202	-591.469793	256.209535	1233.413659	-626.937257	209.334409	1206.498403	-551.789986	489.814552	1171.851219	-15.623642	606.987609	1164.106880	-131.815729	596.181593	1098.892314	-113.792090	323.885507	1214.244904	-612.931841	462.801161	1174.131977	-512.806164	448.821683	1115.898818	-541.622228	336.996906	377.146167	-263.624357	
382	  3.183333	463.199794	1022.073417	-444.400955	448.034132	1019.360243	-196.485134	288.538000	1038.935109	-379.753479	282.199266	1043.999246	-291.127484	388.194931	837.729433	-164.846309	428.394834	712.373304	-198.932588	323.724711	600.585007	-197.277012	470.992895	883.153115	-485.476420	568.305853	806.853324	-460.153945	560.117432	657.053945	-460.999273	265.621154	334.316079	-208.813426	238.673957	225.624866	-278.885277	570.266512	437.288180	-387.837210	476.265515	379.428617	-447.286277	431.811765	304.957777	-379.939801	 79.244634	131.558775	-278.848586	290.301570	 70.072796	-293.035503	253.922328	 62.517616	-201.484993	265.925154	270.106341	-392.326555	447.180539	150.250692	-376.017462	414.648008	142.456874	-465.000762	409.453698	1468.985261	-505.481727	450.993251	1453.559592	-125.603351	530.629808	1431.379552	-301.635946	395.333362	1522.261547	-313.290179	442.596543	1343.815386	-62.973739	463.665220	1276.502565	-69.683720	377.622357	1259.070066	 -9.410377	418.810937	1182.389982	 20.939786	357.103437	1148.755217	-36.080755	357.240933	1410.331731	-554.779064	279.311297	1369.866575	-529.658305	312.198544	1331.279747	-592.194108	252.811752	1240.489085	-627.175441	206.269507	1213.966264	-552.150307	492.775967	1178.535606	-19.241540	606.704240	1172.377586	-138.680772	596.726922	1107.106160	-120.996565	321.185424	1222.052436	-615.034423	460.172320	1182.059676	-514.519102	446.381832	1123.808765	-543.076243	321.885763	383.960755	-263.291935	
383	  3.191667	463.650290	1028.112339	-445.150127	451.233147	1023.621597	-197.739744	289.847078	1044.888314	-379.238253	284.552441	1049.511049	-290.371138	385.868823	842.413439	-165.874896	420.731848	715.583213	-201.359593	312.428561	607.975570	-197.891335	472.859890	889.688662	-485.670271	569.138989	812.600505	-459.636612	559.859323	662.145652	-460.914612	251.387964	341.908354	-207.335061	225.482857	232.028384	-277.921509	575.190216	438.823364	-387.178206	484.557618	375.339107	-446.251146	445.000800	298.312133	-378.537650	 67.533302	139.668741	-278.351827	274.522557	 68.860788	-293.988170	237.838896	 62.899817	-201.937879	281.492063	253.428556	-389.424037	469.843838	144.968868	-375.548863	437.299850	135.957571	-464.488601	407.423172	1474.683516	-505.908440	453.325931	1459.737501	-126.972916	530.380033	1437.715337	-303.897405	394.856379	1527.601592	-313.799482	445.887384	1350.230400	-64.103225	466.560603	1282.803198	-71.394527	381.633548	1265.642755	 -9.295502	422.598498	1188.468222	 19.460916	358.827536	1155.678637	-36.426240	355.162983	1416.848460	-555.196908	277.282575	1376.714677	-530.398787	310.057223	1337.877532	-593.153309	249.867234	1247.132242	-627.677434	203.548299	1220.843194	-552.737952	495.462495	1185.018320	-22.533546	605.944274	1180.115944	-145.225719	596.693456	1114.847925	-127.790834	318.821920	1229.398721	-617.085176	457.963538	1189.591130	-516.406226	444.392855	1131.365797	-544.806992	307.734867	391.300692	-262.189850	
384	  3.200000	464.161949	1033.885143	-445.970141	454.453365	1027.852045	-199.206925	291.166753	1050.590202	-378.798053	287.416261	1054.786532	-289.909054	383.786145	846.960467	-166.652866	412.600415	719.589964	-202.784295	301.793105	615.506638	-198.093796	474.330658	895.791622	-486.186020	569.640844	817.690235	-459.458926	558.837872	666.279529	-460.811059	237.875662	349.918334	-205.354508	213.267312	238.804274	-276.481610	579.415928	439.844090	-386.736171	492.526028	370.858899	-445.501990	458.174398	291.662376	-377.070101	 56.628752	148.488600	-277.828176	259.119492	 67.838295	-294.309313	222.089208	 63.438533	-202.201154	297.508588	236.737985	-386.952801	492.439360	140.138673	-374.763203	459.988594	129.484603	-463.364735	405.489518	1480.008364	-506.372864	455.608290	1465.618973	-128.418428	530.069589	1443.619659	-306.159912	394.437602	1532.717297	-314.354693	449.000260	1356.403437	-65.196422	469.474220	1289.075646	-72.293891	385.323669	1272.059494	 -9.120827	425.994721	1194.345612	 18.178741	360.172069	1162.469350	-36.518954	353.206377	1422.937381	-555.652208	275.380822	1382.958384	-531.348955	308.149014	1343.940799	-594.242060	247.454472	1253.298392	-628.558511	201.172020	1227.028635	-553.532371	497.817589	1191.182549	-25.552445	604.732665	1187.245339	-151.404153	596.098927	1121.986983	-134.249178	316.689376	1236.115958	-618.896783	456.175793	1196.644846	-518.415170	442.861911	1138.447010	-546.769224	294.686411	398.975092	-260.392589	
385	  3.208333	464.749698	1039.267270	-446.855271	457.251749	1032.014108	-200.882483	292.512190	1055.956495	-378.512155	290.252409	1059.834185	-289.686114	381.932459	851.263776	-167.028957	404.252261	724.652937	-202.680565	292.077861	622.915269	-197.853794	475.395350	901.314214	-486.954600	569.782539	821.937384	-459.537332	556.986116	669.438293	-460.675102	225.190258	358.107323	-203.044810	202.242201	245.780754	-274.265670	582.951461	440.378519	-386.575349	500.150833	366.057496	-445.066119	471.210355	285.141558	-375.597060	 46.466074	157.929723	-277.124079	244.196011	 67.366265	-293.846785	206.697945	 64.143834	-202.194904	313.948893	220.294077	-385.012439	514.617596	135.903616	-373.503293	482.636392	123.231562	-461.674818	403.671106	1484.887952	-506.890210	457.739522	1471.101020	-129.982587	529.711379	1449.016089	-308.388531	394.082755	1537.547824	-314.959637	451.844629	1362.247684	-66.285319	472.282267	1295.165892	-72.609091	388.723754	1278.212397	 -8.834546	428.957903	1199.903563	 16.995420	361.187253	1168.995660	-36.386503	351.366629	1428.533611	-556.164156	273.642784	1388.549549	-532.502746	306.439422	1349.381635	-595.339578	245.534689	1258.893669	-629.777012	199.216386	1232.447349	-554.527237	499.749580	1196.920719	-28.350745	603.100913	1193.720567	-157.171687	594.987480	1128.437627	-140.351416	314.812418	1242.148288	-620.571130	454.797719	1203.130725	-520.534396	441.770534	1144.964497	-548.884313	282.898011	406.688424	-258.040047	
386	  3.216667	465.427678	1044.137947	-447.783419	459.392542	1036.043772	-202.767634	293.965374	1060.918727	-378.438958	292.607652	1064.678504	-289.607116	380.183744	855.294967	-166.982954	396.317368	730.429364	-201.107658	283.561837	629.890999	-197.209864	476.017476	906.021006	-487.812466	569.528324	825.137043	-459.741778	554.240983	671.642633	-460.544921	213.496247	366.154567	-200.589316	192.357890	252.608070	-271.320740	585.813305	440.464917	-386.730223	507.384201	361.025969	-444.923162	483.907242	278.819082	-374.322893	 36.944385	167.811768	-276.149462	229.696431	 67.581589	-292.845986	191.598638	 65.009502	-201.891880	330.698847	204.350642	-383.612121	536.064921	132.378961	-371.717142	505.149267	117.433847	-459.521412	401.974174	1489.254667	-507.455472	459.635665	1476.075865	-131.671122	529.323207	1453.851050	-310.552277	393.795014	1542.003150	-315.619891	454.333140	1367.693677	-67.391103	474.750048	1300.773468	-72.859647	391.851236	1284.010063	 -8.412591	431.471801	1205.048073	 15.856934	361.903510	1175.150285	-36.059249	349.658925	1433.579274	-556.768007	272.102310	1393.456217	-533.828442	304.918551	1354.165748	-596.420192	244.010898	1263.802091	-631.203153	197.774223	1237.062057	-555.724442	501.192415	1202.142921	-30.950839	601.098333	1199.497420	-162.489717	593.437407	1134.159026	-145.973047	313.282570	1247.504615	-622.311519	453.813588	1208.953675	-522.758847	441.091407	1150.888542	-551.100312	272.519601	414.026322	-255.316443	
387	  3.225000	466.193526	1048.360315	-448.703255	460.985568	1039.819881	-204.795914	295.602174	1065.439076	-378.591618	294.436985	1069.309731	-289.628595	378.423432	859.090639	-166.667591	389.535471	736.117275	-198.657107	276.508031	636.120046	-196.280480	476.155369	909.691071	-488.600015	568.850317	827.165482	-460.056116	550.583919	672.920556	-460.486834	203.016257	373.672389	-198.183393	183.342621	258.912846	-268.024707	588.034454	440.146190	-387.174637	514.148983	355.892857	-444.997006	496.054302	272.742818	-373.453535	 27.901050	177.887276	-274.901272	215.511813	 68.476736	-291.655686	176.696103	 66.054047	-201.321923	347.520569	189.120642	-382.653272	556.570712	129.696453	-369.434103	527.299532	112.288588	-457.009932	400.399693	1493.047009	-508.049182	461.232727	1480.460432	-133.445169	528.913258	1458.093190	-312.637729	393.572119	1545.972762	-316.345491	456.408189	1372.677509	-68.506795	476.719079	1305.582633	-73.510244	394.675408	1289.373846	 -7.898306	433.551602	1209.712413	 14.791048	362.330152	1180.843768	-35.568993	348.118962	1438.020963	-557.495782	270.784161	1397.648771	-535.278284	303.609943	1358.312550	-597.569077	242.819472	1267.936786	-632.740488	196.881600	1240.860380	-557.124124	502.154192	1206.772866	-33.331186	598.791635	1204.499688	-167.327028	591.531854	1139.123103	-150.983213	312.145058	1252.181939	-624.182060	453.220024	1214.046439	-525.046167	440.807651	1156.214268	-553.419036	263.656802	420.513198	-252.468955	
388	  3.233333	467.027172	1051.774772	-449.550343	462.340895	1043.165629	-206.759579	297.402174	1069.515544	-378.942294	296.016828	1073.661273	-289.781002	376.669877	862.691199	-166.322483	384.457571	740.920452	-196.055047	271.143964	641.343424	-195.241350	475.817628	912.206915	-489.240577	567.724795	828.018811	-460.659874	546.089710	673.309901	-460.569508	193.993012	380.268449	-196.038062	174.862253	264.474740	-264.923004	589.629431	439.474378	-387.799903	520.365451	350.799035	-445.152959	507.480366	266.997608	-373.005900	 19.123080	187.926497	-273.445866	201.543530	 70.000334	-290.491110	161.932640	 67.353259	-200.552942	364.083678	174.774060	-381.939308	575.968450	127.956750	-366.781873	548.677180	107.918271	-454.264425	398.962253	1496.202390	-508.659316	462.479069	1484.211597	-135.233672	528.471944	1461.728802	-314.648100	393.404981	1549.357130	-317.146651	458.048306	1377.124171	-69.593741	478.241434	1309.458954	-74.611810	397.096270	1294.223381	 -7.412107	435.217265	1213.847365	 13.872348	362.464454	1185.982102	-34.957940	346.791928	1441.799977	-558.356530	269.704775	1401.084854	-536.805090	302.555624	1361.843971	-598.895373	241.960534	1271.265310	-634.377144	196.493700	1243.824794	-558.723202	502.717483	1210.743184	-35.437270	596.246241	1208.620621	-171.670514	589.314170	1143.277902	-155.351752	311.369216	1256.143247	-626.081501	453.030323	1218.395316	-527.335159	440.920716	1160.908523	-555.882064	256.351591	425.728669	-249.804790	
